<?xml version="1.0" encoding="utf-8"?>
<!-- Generator: Adobe Illustrator 25.2.3, SVG Export Plug-In . SVG Version: 6.00 Build 0)  -->
<svg version="1.1" id="Layer_1" xmlns="http://www.w3.org/2000/svg" xmlns:xlink="http://www.w3.org/1999/xlink" x="0px" y="0px"
	 viewBox="0 0 192 192" style="enable-background:new 0 0 192 192;" xml:space="preserve">
<style type="text/css">
	.st0{fill:#4C5F69;}
</style>
<g>
	<path class="st0" d="M-1.5,42.1h25.3c11.5,0,20.9,2.3,28.3,6.9c7.4,4.6,12.9,10.9,16.5,19S74,85.3,74,95.7
		c0,10.5-1.8,19.8-5.4,27.8s-9.1,14.4-16.4,19c-7.4,4.6-16.8,6.9-28.3,6.9H-1.5V42.1z M12.4,54.8v82h10.3c8.5,0,15.4-1.8,20.8-5.3
		s9.3-8.4,11.9-14.5c2.6-6.2,3.9-13.2,4-21.1c0-8-1.3-15-3.8-21.2c-2.5-6.2-6.5-11-12-14.6c-5.4-3.5-12.4-5.3-20.8-5.3L12.4,54.8
		L12.4,54.8z"/>
	<path class="st0" d="M86.3,95.7c0-7.8,1.3-15.1,4-21.8c2.7-6.8,6.4-12.7,11.3-17.7c4.8-5,10.5-9,17-11.8s13.5-4.2,21.1-4.2
		c7.6,0,14.7,1.4,21.2,4.2c6.5,2.8,12.1,6.8,16.9,11.8s8.5,10.9,11.2,17.7s4,14,4,21.8c0,7.9-1.3,15.2-3.9,21.9
		c-2.6,6.8-6.4,12.7-11.1,17.7c-4.8,5.1-10.4,9-16.9,11.8c-6.5,2.8-13.6,4.2-21.3,4.2s-14.9-1.4-21.4-4.2c-6.5-2.8-12.2-6.8-17-11.8
		c-4.8-5.1-8.5-11-11.1-17.7C87.6,110.9,86.3,103.6,86.3,95.7z M100.7,95.7c0,8,1.7,15.2,5,21.6c3.3,6.4,7.9,11.5,13.8,15.3
		s12.6,5.7,20.2,5.7c7.6,0,14.4-1.9,20.2-5.7c5.8-3.8,10.4-8.9,13.7-15.3c3.3-6.4,5-13.6,5-21.6s-1.6-15.2-5-21.5
		c-3.3-6.4-7.9-11.4-13.7-15.2c-5.8-3.7-12.6-5.6-20.2-5.6c-7.6,0-14.3,1.9-20.2,5.6s-10.5,8.8-13.8,15.2
		C102.4,80.6,100.7,87.7,100.7,95.7z"/>
</g>
</svg>
