<?xml version="1.0" encoding="utf-8"?>
<!-- Generator: Adobe Illustrator 25.2.3, SVG Export Plug-In . SVG Version: 6.00 Build 0)  -->
<svg version="1.1" id="Layer_1" xmlns="http://www.w3.org/2000/svg" xmlns:xlink="http://www.w3.org/1999/xlink" x="0px" y="0px"
	 viewBox="0 0 800 800" style="enable-background:new 0 0 800 800;" xml:space="preserve">
<style type="text/css">
	.st0{fill:#FFFFFF;}
</style>
<path class="st0" d="M485.8,34c-3.2-3.2-9.7-19.4-32.4-19.4H230c0,0,32.4,3.2,45.3,35.6c0,0,35.6,84.2,68,165.2
	c93.9,220.2,239.7,570,239.7,570h217C803.2,782.1,489.1,37.3,485.8,34L485.8,34z M191.1,63.2L13,484.2C3.3,513.4,9.7,549,61.6,549
	h139.3l123.1-294.7C285,157.1,252.7,79.4,252.7,79.4c-3.2-9.7-13-35.6-32.4-35.6S194.4,59.9,191.1,63.2L191.1,63.2z M187.8,584.6
	h-149C13,584.6,0,568.4,0,568.4c25.9,45.3,100.4,187.9,100.4,187.9c13,16.2,25.9,25.9,45.3,25.9c42.1,0,106.9-42.1,106.9-42.1
	L502,584.6L187.8,584.6z"/>
</svg>
