<?xml version="1.0" encoding="utf-8"?>
<!-- Generator: Adobe Illustrator 25.2.3, SVG Export Plug-In . SVG Version: 6.00 Build 0)  -->
<svg version="1.1" id="Layer_1" xmlns="http://www.w3.org/2000/svg" xmlns:xlink="http://www.w3.org/1999/xlink" x="0px" y="0px"
	 viewBox="0 0 800 800" style="enable-background:new 0 0 800 800;" xml:space="preserve">
<style type="text/css">
	.st0{fill:#FFFFFF;}
	.st1{fill:#4C5F69;}
</style>
<path class="st0" d="M754.4,234.6c0-13.4-2.9-25.3-8.7-35.4c-5.7-10-14.2-18.4-25.7-25C625.5,119.6,530.9,65.3,436.4,10.7
	C410.9-4,386.2-3.4,360.9,11.5C323.3,33.7,135,141.6,78.8,174.1c-23.1,13.4-34.4,33.9-34.4,60.5c0,109.6,0,219.2,0,328.8
	c0,13.1,2.8,24.7,8.3,34.8c5.7,10.3,14.4,18.9,26.1,25.7c56.1,32.5,244.5,140.4,282.1,162.6c25.3,14.9,50,15.5,75.5,0.7
	c94.5-54.6,189.1-108.9,283.6-163.4c11.7-6.8,20.4-15.4,26.1-25.7c5.5-10,8.3-21.6,8.3-34.8C754.4,563.3,754.4,344.2,754.4,234.6"/>
<path class="st0" d="M400.5,397.9L52.7,598.1c5.7,10.3,14.4,18.9,26.1,25.7c56.1,32.5,244.5,140.4,282.1,162.6
	c25.3,14.9,50,15.5,75.5,0.7c94.5-54.6,189.1-108.9,283.6-163.4c11.7-6.8,20.4-15.4,26.1-25.7L400.5,397.9"/>
<path class="st0" d="M754.4,234.6c0-13.4-2.9-25.3-8.7-35.4L400.5,397.9l345.6,200.2c5.5-10,8.3-21.6,8.3-34.8
	C754.4,563.3,754.4,344.2,754.4,234.6"/>
<path class="st1" d="M605.3,323v37.4h37.4V323h18.7v37.4h37.4v18.7h-37.4v37.4h37.4v18.7h-37.4v37.4h-18.7v-37.4h-37.4v37.4h-18.7
	v-37.4h-37.4v-18.7h37.4v-37.4h-37.4v-18.7h37.4V323H605.3z M642.7,379.2h-37.4v37.4h37.4V379.2z"/>
<path class="st1" d="M401.3,135.1c97.6,0,182.9,53,228.5,131.8l-0.4-0.8l-114.9,66.1c-22.6-38.3-64.1-64.2-111.7-64.7l-1.5,0
	c-72.6,0-131.4,58.8-131.4,131.4c0,23.7,6.3,46,17.3,65.2c22.7,39.5,65.2,66.2,114.1,66.2c49.1,0,92-27,114.5-67l-0.5,1l114.7,66.4
	c-45.2,78.1-129.2,131-225.7,132l-2.9,0c-97.9,0-183.4-53.3-228.9-132.6c-22.2-38.7-35-83.5-35-131.3
	C137.4,253.2,255.5,135.1,401.3,135.1z"/>
</svg>
