<?xml version="1.0" encoding="utf-8"?>
<!-- Generator: Adobe Illustrator 25.2.3, SVG Export Plug-In . SVG Version: 6.00 Build 0)  -->
<svg version="1.1" id="Layer_1" xmlns="http://www.w3.org/2000/svg" xmlns:xlink="http://www.w3.org/1999/xlink" x="0px" y="0px"
	 viewBox="0 0 800 800" style="enable-background:new 0 0 800 800;" xml:space="preserve">
<style type="text/css">
	.st0{fill:#FFFFFF;}
</style>
<path class="st0" d="M760.7,366.6L433.3,39.2c-8.8-8.7-20.8-14.1-34.2-14.1c-13.4,0-25.4,5.4-34.2,14.1l0,0l-67.8,67.9l86.2,86.2
	c5.5-1.9,11.8-3,18.4-3c31.7,0,57.4,25.7,57.4,57.4c0,6.7-1.1,13.1-3.3,19.1l0.1-0.4l83,83.1c5.6-2,12-3.1,18.7-3.1
	c31.7,0,57.4,25.7,57.4,57.4s-25.7,57.4-57.4,57.4s-57.4-25.7-57.4-57.4c0-7.8,1.6-15.3,4.4-22.1l-0.1,0.4l-77.8-77.3v203.8
	c19.1,9.6,32,29.1,32,51.5c0,31.8-25.8,57.5-57.5,57.5s-57.5-25.8-57.5-57.5c0-15.9,6.4-30.2,16.8-40.6l0,0
	c5.3-5.3,11.6-9.5,18.5-12.5l0.4-0.2V301.1c-21-8.9-35.5-29.3-35.5-53.1c0-8,1.6-15.6,4.6-22.5l-0.1,0.4l-84.7-85.1L39.2,365
	c-8.7,8.8-14.1,20.8-14.1,34.2c0,13.4,5.4,25.4,14.1,34.2l327.4,327.3c8.7,8.8,20.8,14.2,34.1,14.2c13.4,0,25.4-5.4,34.1-14.2
	l325.8-325.9c8.8-8.7,14.2-20.8,14.2-34.1C774.9,387.4,769.5,375.3,760.7,366.6L760.7,366.6L760.7,366.6z"/>
</svg>
