<?xml version="1.0" encoding="utf-8"?>
<!-- Generator: Adobe Illustrator 25.2.3, SVG Export Plug-In . SVG Version: 6.00 Build 0)  -->
<svg version="1.1" id="Layer_1" xmlns="http://www.w3.org/2000/svg" xmlns:xlink="http://www.w3.org/1999/xlink" x="0px" y="0px"
	 viewBox="0 0 800 800" style="enable-background:new 0 0 800 800;" xml:space="preserve">
<style type="text/css">
	.st0{fill:#FFFFFF;}
</style>
<path class="st0" d="M432.8,369.7h-70.2c0,60.5-0.3,120.7-0.3,181.3c0.8,8.2,1.3,17.8,1.3,27.5c0,20.2-2,40-5.9,59.1l0.3-1.9
	c-10.3,21.5-36.9,18.8-48.9,15c-11.3-6.1-20.2-15.2-25.8-26.4l-0.1-0.4c-1.1-2.3-2.4-4.3-4-6.1l0,0l-57,35.2
	c9.2,19.8,23.4,35.8,40.9,47.1l0.4,0.3c19.1,10.7,41.9,17,66.1,17c12.1,0,23.9-1.6,35-4.5l-1,0.2c24.7-6.2,44.8-22.2,56.4-43.6
	l0.2-0.5c9-22.8,14.1-49.3,14.1-77c0-9.7-0.6-19.2-1.9-28.6l0.1,1.1c0.4-64.2,0-128.4,0-193.1L432.8,369.7z M713.5,596.1
	c-5.5-34.2-27.8-63-93.8-89.8c-23-10.8-48.5-18.3-56.1-35.6c-1.6-4-2.5-8.5-2.5-13.3c0-3.1,0.4-6.1,1.1-9l0,0.2
	c5.2-13.7,18.3-23.4,33.6-23.4c5,0,9.7,1,14,2.8l-0.2-0.1c13.8,4.8,24.7,14.8,30.4,27.8l0.1,0.3c32.3-21.1,32.3-21.1,54.8-35.2
	c-5.4-9.2-11.5-17.2-18.3-24.4l0.1,0c-19.2-20.4-46.3-33-76.4-33c-4.3,0-8.5,0.2-12.6,0.8l0.5,0l-22,2.8
	c-21.4,4.9-39.7,16-53.3,31.3l-0.1,0.1c-13.4,16.6-21.5,38-21.5,61.2c0,32,15.3,60.4,39,78.3l0.2,0.2c42.7,31.9,105,38.9,113,68.9
	c7.5,36.6-27.2,48.3-61.4,44c-23.9-5.5-43.5-20.8-54.6-41.3l-0.2-0.4l-57.2,32.8c6.7,13.4,15.2,24.8,25.3,34.6l0,0
	c54.4,54.8,190.2,52,214.7-31.4c2.8-9.1,4.5-19.5,4.5-30.4c0-7.5-0.8-14.8-2.3-21.9l0.1,0.7L713.5,596.1z M25.1,25.1h749.8v749.8
	H25.1L25.1,25.1z"/>
</svg>
