<?xml version="1.0" encoding="utf-8"?>
<!-- Generator: Adobe Illustrator 25.2.3, SVG Export Plug-In . SVG Version: 6.00 Build 0)  -->
<svg version="1.1" id="Layer_1" xmlns="http://www.w3.org/2000/svg" xmlns:xlink="http://www.w3.org/1999/xlink" x="0px" y="0px"
	 viewBox="0 0 800 800" style="enable-background:new 0 0 800 800;" xml:space="preserve">
<style type="text/css">
	.st0{fill:#FFFFFF;}
</style>
<path class="st0" d="M83.7,90.5v637h647.8v-637L83.7,90.5L83.7,90.5z M679.9,676.8H135.2V141.1h544.7V676.8z"/>
<path class="st0" d="M389.5,269.2c-16.3-14.1-40.6-22.1-74.7-22.1c-33.7,0-74.7,1.1-74.7,1.1v261.2h54.7v-84c0,0,9.6-0.1,19.9-0.5
	c37.5-1.6,59.4-12.9,78.3-32.1c14.5-14.8,22.5-36,22.5-61.8S405.1,282.5,389.5,269.2L389.5,269.2z M313.4,379.2
	c-8.8,0.1-12.5,0.4-18.5-0.2v-90.2c0,0,11.6-0.4,22.8,0c28.2,1,43.1,20.9,43.1,45.2C360.9,361,342.8,378.8,313.4,379.2L313.4,379.2z
	"/>
<path class="st0" d="M522.5,387.2c-23.6-8.4-31.2-13.2-31.2-22.3c0-10,8.3-15.9,22.9-15.9c16.5,0,41.6,10.7,50.3,15.5v-44
	c-11.8-6-29.8-13.3-52.2-13.3c-47.7,0-78.4,27.5-78.4,64.2c-0.4,22.7,15,38.9,54.8,52.5c22.5,7.6,28.4,18,28.4,28
	s-7.5,16.4-25.6,16.4c-17.7,0-43.8-10.1-54.8-16.9l0,0v43.5c14.6,8,35.7,15.5,54.8,16.1c55.6,1.7,83.6-27.1,83.6-63.4
	C574.5,418.7,559.1,400,522.5,387.2L522.5,387.2z"/>
</svg>
