<?xml version="1.0" encoding="utf-8"?>
<!-- Generator: Adobe Illustrator 25.2.3, SVG Export Plug-In . SVG Version: 6.00 Build 0)  -->
<svg version="1.1" id="Layer_1" xmlns="http://www.w3.org/2000/svg" xmlns:xlink="http://www.w3.org/1999/xlink" x="0px" y="0px"
	 viewBox="0 0 800 800" style="enable-background:new 0 0 800 800;" xml:space="preserve">
<style type="text/css">
	.st0{fill:#FFFFFF;}
</style>
<path class="st0" d="M553,251c0.2,0,0.3,0,0.5,0c5.2,0,10.1,1.6,14,4.4l-0.1-0.1c2.9,2.5,4.9,6.1,5.3,10.1v0.1
	c0.5,3.1,0.8,6.6,0.8,10.1c0,1.6-0.1,3.2-0.2,4.8v-0.2c-5.6,59.2-30,202.9-42.4,269.2c-5.2,28.1-15.6,37.5-25.6,38.4
	c-21.7,2-38.2-14.3-59.3-28.1c-33-21.6-51.6-35.1-83.5-56.1c-37-24.3-13-37.8,8-59.6c5.5-5.7,101.3-92.9,103.2-100.8
	c0.1-0.5,0.2-1,0.2-1.6c0-1.9-0.7-3.7-1.9-5.1l0,0c-1.3-0.9-2.9-1.3-4.6-1.3c-1.1,0-2.2,0.2-3.2,0.6l0.1,0
	c-3.3,0.8-55.9,35.5-157.9,104.3c-11.1,8.8-25.2,14.3-40.5,15h-0.1c-21.7-2.6-41.4-7.5-60-14.3l1.9,0.6
	c-23.4-7.6-42.1-11.7-40.5-24.6c0.8-6.7,10.1-13.6,27.8-20.7c109.1-47.6,181.9-78.9,218.3-94c40.2-21.3,86.7-38.9,135.7-50.3
	L553,251L553,251z M398.2,25.6C190.7,26.1,22.6,194.5,22.6,402.1c0,207.9,168.6,376.5,376.5,376.5s376.5-168.5,376.5-376.5
	c0-207.6-168.1-376-375.6-376.5H400C399.4,25.6,398.8,25.6,398.2,25.6L398.2,25.6z"/>
</svg>
