<?xml version="1.0" encoding="utf-8"?>
<!-- Generator: Adobe Illustrator 25.2.3, SVG Export Plug-In . SVG Version: 6.00 Build 0)  -->
<svg version="1.1" id="Layer_1" xmlns="http://www.w3.org/2000/svg" xmlns:xlink="http://www.w3.org/1999/xlink" x="0px" y="0px"
	 viewBox="0 0 800 800" style="enable-background:new 0 0 800 800;" xml:space="preserve">
<style type="text/css">
	.st0{fill:#FFFFFF;}
</style>
<path class="st0" d="M771.6,86.2L607,7c-19.2-9.2-41.9-5.4-56.9,9.6L234.9,304.3L97.6,200.1c-12.8-9.8-30.7-9-42.6,1.8L11,242
	c-14.6,13.1-14.6,36.1-0.1,49.2L130,400L10.9,508.7c-14.4,13.2-14.4,36.1,0.1,49.2L55,598c12,10.8,29.8,11.6,42.6,1.8l137.4-104.3
	l315.4,287.8c14.8,15,37.6,18.9,56.8,9.6l164.7-79.3c17.3-8.3,28.2-25.8,28.2-45V131.2C800.1,112,789,94.5,771.6,86.2L771.6,86.2z
	 M600.1,581.7L360.8,400l239.3-181.6V581.7z"/>
</svg>
