<?xml version="1.0" encoding="utf-8"?>
<!-- Generator: Adobe Illustrator 25.2.3, SVG Export Plug-In . SVG Version: 6.00 Build 0)  -->
<svg version="1.1" id="Layer_1" xmlns="http://www.w3.org/2000/svg" xmlns:xlink="http://www.w3.org/1999/xlink" x="0px" y="0px"
	 viewBox="0 0 512 512" style="enable-background:new 0 0 512 512;" xml:space="preserve">
<style type="text/css">
	.st0{fill:#FFFFFF;}
</style>
<path class="st0" d="M0,13.3h41.3C175.4,13.3,284,122,284,256S175.4,498.7,41.3,498.7H0V392h41.3c75.1,0,136-60.9,136-136
	s-60.9-136-136-136H0L0,13.3z M364,309.3h-41.3c6.7-35.2,6.7-71.4,0-106.7H364c51.3,0.1,57.8-80.1,0-82.7h-70.7
	c-23.5-43.6-58-80.4-100-106.7H364c81.7,0,148,66.3,148,148c0,34.6-12.1,68.1-34.2,94.7c52.3,62.8,43.7,156.1-19.1,208.4
	c-26.6,22.1-60.1,34.2-94.7,34.2H193.3c42-26.3,76.4-63.1,100-106.7H364C418.7,392,418.7,309.3,364,309.3z"/>
</svg>
