<?xml version="1.0" encoding="utf-8"?>
<!-- Generator: Adobe Illustrator 25.2.3, SVG Export Plug-In . SVG Version: 6.00 Build 0)  -->
<svg version="1.1" id="Layer_1" xmlns="http://www.w3.org/2000/svg" xmlns:xlink="http://www.w3.org/1999/xlink" x="0px" y="0px"
	 viewBox="0 0 24 24" style="enable-background:new 0 0 24 24;" xml:space="preserve">
<style type="text/css">
	.st0{fill:#FFFFFF;}
	.st1{opacity:0.2;fill:#FFFFFF;enable-background:new    ;}
	.st2{opacity:0.1;fill:#FFFFFF;enable-background:new    ;}
</style>
<g>
	<path id="XMLID_1465_" class="st0" d="M0,17c0,0,0.5,0,2.1,0s2.4,0,4.2-5.6l2.1-2.2c1.7,6.7,2.4,7.8,3.7,7.8c1.2,0,3.4,0,4.7,0
		s2.6-0.9,7.3-10c0,0-1.9,0-4.2,0s-3.2,4.3-4.2,7.8C14,8.5,13.7,7,11.5,7S8.9,7,6.8,7S2.3,8.7,0,17z"/>
	<path class="st1" d="M6.8,7.2c2.1,0,2.5,0,4.7,0S14,8.8,15.7,15c0.9-3.5,1.9-7.8,4.2-7.8c2,0,3.6,0,4,0C23.9,7.2,24,7.1,24,7
		c0,0-1.9,0-4.2,0c-2.3,0-3.2,4.3-4.2,7.8C14,8.5,13.7,7,11.5,7S8.9,7,6.8,7S2.3,8.7,0,17c0,0,1.1-3.2,1.6-4.4
		C3.4,8.3,5.1,7.2,6.8,7.2z"/>
	<path class="st2" d="M16.7,16.8c-1.3,0-3.5,0-4.7,0S10.1,15.7,8.3,9l-2.1,2.2c-1.8,5.5-2.6,5.6-4.2,5.6c-1.3,0-1.8,0-2,0
		C0,16.8,0,16.9,0,17c0,0,0.5,0,2.1,0s2.4,0,4.2-5.6l2.1-2.2c1.7,6.7,2.4,7.8,3.7,7.8s3.4,0,4.7,0c1.3,0,2.6-0.9,7.3-10
		c0,0-0.8,1.3-1.2,1.9C19,16,17.9,16.8,16.7,16.8z"/>
	<path id="XMLID_1022_" class="st0" d="M0,17c0,0,0.5,0,2.1,0s2.4,0,4.2-5.6l2.1-2.2c1.7,6.7,2.4,7.8,3.7,7.8c1.2,0,3.4,0,4.7,0
		s2.6-0.9,7.3-10c0,0-1.9,0-4.2,0s-3.2,4.3-4.2,7.8C14,8.5,13.7,7,11.5,7S8.9,7,6.8,7S2.3,8.7,0,17z"/>
</g>
</svg>
