<?xml version="1.0" encoding="utf-8"?>
<!-- Generator: Adobe Illustrator 25.2.3, SVG Export Plug-In . SVG Version: 6.00 Build 0)  -->
<svg version="1.1" id="Shopicons" xmlns="http://www.w3.org/2000/svg" xmlns:xlink="http://www.w3.org/1999/xlink" x="0px" y="0px"
	 viewBox="0 0 800 800" style="enable-background:new 0 0 800 800;" xml:space="preserve">
<style type="text/css">
	.st0{fill:#FFFFFF;}
</style>
<path class="st0" d="M587.9,300c28.9-25.2,45.4-61.7,45.4-100c0-73.5-59.8-133.3-133.3-133.3H300c-73.5,0-133.3,59.8-133.3,133.3
	c0,38.3,16.6,74.8,45.4,100c-27.8,24.4-45.4,60.2-45.4,100s17.7,75.5,45.4,100c-28.9,25.2-45.4,61.7-45.4,100
	c0,73.5,59.8,133.3,133.3,133.3S433.3,673.5,433.3,600v-84.7c20.2,11.8,43.2,18,66.7,18c73.5,0,133.3-59.8,133.3-133.3
	C633.3,361.7,616.8,325.2,587.9,300z M566.7,200c0,36.8-29.9,66.7-66.7,66.7h-66.7V133.3H500C536.8,133.3,566.7,163.2,566.7,200z
	 M233.3,200c0-36.8,29.9-66.7,66.7-66.7h66.7v133.3H300C263.2,266.7,233.3,236.8,233.3,200z M233.3,400c0-36.8,29.9-66.7,66.7-66.7
	h66.7v133.3H300C263.2,466.7,233.3,436.8,233.3,400z M366.7,600c0,36.8-29.9,66.7-66.7,66.7s-66.7-29.9-66.7-66.7
	c0-36.8,29.9-66.7,66.7-66.7h66.7V600z M500,466.7c-36.8,0-66.7-29.9-66.7-66.7s29.9-66.7,66.7-66.7c36.8,0,66.7,29.9,66.7,66.7
	S536.8,466.7,500,466.7z"/>
</svg>
