<?xml version="1.0" encoding="utf-8"?>
<!-- Generator: Adobe Illustrator 25.2.3, SVG Export Plug-In . SVG Version: 6.00 Build 0)  -->
<svg version="1.1" id="Layer_1" xmlns="http://www.w3.org/2000/svg" xmlns:xlink="http://www.w3.org/1999/xlink" x="0px" y="0px"
	 viewBox="0 0 800 800" style="enable-background:new 0 0 800 800;" xml:space="preserve">
<style type="text/css">
	.st0{fill:#FFFFFF;}
</style>
<path class="st0" d="M509.6,281.6c16.4,0,29.7-13.2,29.7-29.5s-13.4-29.5-29.7-29.5c-16.4,0-29.7,13.2-29.7,29.5
	C479.9,268.5,493.2,281.6,509.6,281.6z"/>
<path class="st0" d="M480.6,307.5H538v216.1h-57.5V307.5z"/>
<path class="st0" d="M297.8,451.1h77.7l21,72.4h58.8l-85.5-283.9h-71.4v28l-74.9,255.9h53.2L297.8,451.1L297.8,451.1z M336.3,290.1
	L365,401.4h-57.4L336.3,290.1L336.3,290.1z"/>
<path class="st0" d="M70.6,78v635.5h649V78H70.6L70.6,78z M671,663.5H120.2V128H671V663.5z"/>
</svg>
