<?xml version="1.0" encoding="utf-8"?>
<!-- Generator: Adobe Illustrator 25.2.3, SVG Export Plug-In . SVG Version: 6.00 Build 0)  -->
<svg version="1.1" id="Layer_1" xmlns="http://www.w3.org/2000/svg" xmlns:xlink="http://www.w3.org/1999/xlink" x="0px" y="0px"
	 viewBox="0 0 800 800" style="enable-background:new 0 0 800 800;" xml:space="preserve">
<style type="text/css">
	.st0{fill:#FFFFFF;}
</style>
<g id="_x35_151e0c8492e5103c096af88a51ef0ed">
	<path class="st0" d="M779.9,569.7c0,0-99.3,267.8-441.2,205.5c-5.4-1-10.5-2.9-15.8-4.5c-1.2-0.4-2.5-0.7-3.7-1.1
		c-5.1-1.6-10.2-3.2-15.3-5c-0.6-0.2-1.1-0.4-1.7-0.6c-4.6-1.6-9.2-3.3-13.7-5.1c-1.2-0.5-2.4-0.9-3.5-1.4c-4.9-1.9-9.7-3.9-14.5-6
		c-0.9-0.4-1.7-0.8-2.6-1.2c-4.2-1.9-8.3-3.8-12.4-5.8c-1.1-0.5-2.1-1-3.2-1.5c-0.6-0.3-1.2-0.6-1.8-0.9c-2.6-1.3-5.2-2.7-7.8-4.1
		c-2-1-4.1-2.1-6.1-3.1c-3.7-2-7.3-4.1-11-6.2c-1.3-0.8-2.7-1.5-4-2.3c-4.9-2.9-9.8-5.9-14.6-8.9c-1.4-0.9-2.7-1.8-4-2.7
		c-3.1-2-6.3-4.1-9.3-6.2c-0.3-0.2-0.6-0.5-1-0.7c-1.2-0.8-2.3-1.6-3.5-2.5c-3.2-2.2-6.4-4.5-9.6-6.9c-1.5-1.2-3.1-2.3-4.6-3.5
		c-2.9-2.2-5.7-4.4-8.6-6.7c-1.4-1.1-2.8-2.2-4.2-3.4c-3.5-2.8-6.9-5.7-10.3-8.7c-0.6-0.6-1.3-1.1-2-1.7c-0.1,0-0.1-0.1-0.2-0.1
		c-3.8-3.4-7.6-6.8-11.3-10.3c-1.1-1-2.2-2.1-3.4-3.2c-2.8-2.7-5.5-5.4-8.2-8.1c-1.1-1.1-2.2-2.2-3.3-3.3c-3.5-3.6-7-7.2-10.3-10.9
		c-0.1-0.2-0.2-0.3-0.4-0.4c-0.1-0.1-0.1-0.1-0.2-0.2c-3.5-3.8-6.8-7.7-10.2-11.6c-0.9-1.1-1.9-2.2-2.8-3.3c-2.5-3-4.9-6-7.3-9
		c-1-1.3-2-2.5-3-3.8c-2.7-3.5-5.3-7-7.9-10.5c-0.5-0.7-1-1.3-1.5-2c-0.1-0.1-0.2-0.2-0.2-0.3c-3-4.1-5.8-8.3-8.7-12.5
		c-0.9-1.3-1.7-2.6-2.5-3.9c-2-3.1-4-6.2-6-9.4c-1-1.6-2-3.2-3-4.8c-1.8-2.9-3.5-5.9-5.2-8.8c-1-1.7-1.9-3.3-2.8-5
		c-0.5-0.9-1.1-1.8-1.6-2.8c-0.9-1.6-1.7-3.2-2.5-4.9c-1.3-2.5-2.7-5.1-4-7.7c-54-108-62.8-240.1,7.9-341.8l55.2-70
		c-62.3,120.3-34.3,266.8,43.6,373.1c2.8,3.9,5.7,7.7,8.6,11.5c0.9,1.1,1.8,2.3,2.7,3.4c2.4,3.1,5,6.2,7.5,9.2
		c0.9,1.1,1.8,2.1,2.7,3.2c3.4,4,6.8,8,10.4,11.8c0.2,0.2,0.3,0.4,0.5,0.5c3.4,3.7,6.8,7.3,10.2,10.8c1.1,1.1,2.2,2.2,3.3,3.3
		c2.7,2.8,5.5,5.5,8.3,8.2c1.1,1.1,2.2,2.1,3.3,3.2c3.8,3.6,7.7,7.1,11.6,10.6c0.4,0.4,0.8,0.7,1.2,1c3.6,3.2,7.3,6.2,11.1,9.3
		c1.3,1.1,2.6,2.1,3.9,3.2c2.9,2.4,5.9,4.7,8.9,6.9c1.4,1.1,2.9,2.2,4.4,3.3c3.2,2.4,6.5,4.8,9.8,7.1c1.1,0.8,2.2,1.6,3.4,2.4
		c3.4,2.4,6.9,4.7,10.4,6.9c1.3,0.9,2.6,1.8,3.9,2.6c4.8,3.1,9.7,6.1,14.6,9c1.3,0.7,2.5,1.4,3.8,2.1c3.7,2.2,7.4,4.3,11.2,6.3
		c2.1,1.1,4.2,2.2,6.2,3.3c3.1,1.6,6.2,3.2,9.4,4.8c1.2,0.6,2.3,1.1,3.5,1.7c4,1.9,8,3.8,12.1,5.6c1,0.4,1.9,0.9,2.9,1.3
		c4.7,2.1,9.5,4.1,14.4,6c1.2,0.5,2.5,1,3.7,1.5c4.4,1.7,8.8,3.4,13.3,4.9c0.7,0.2,1.4,0.5,2.1,0.7c5,1.7,10,3.4,15.1,4.9
		c1.3,0.4,2.6,0.8,3.9,1.2c5.2,1.5,10.3,3.2,15.7,4.4C548.5,707.1,696.5,678.4,779.9,569.7z M285.1,398.1c7.7,11,16.2,24,26.3,32.9
		c3.7,4.1,7.5,8,11.5,11.9c1,1,2,2,3,3c3.8,3.7,7.7,7.4,11.7,10.9c0.2,0.1,0.3,0.3,0.5,0.4c0,0.1,0.1,0.1,0.1,0.1
		c4.4,3.9,9,7.6,13.7,11.3c1,0.8,2.1,1.6,3.1,2.4c4.7,3.6,9.4,7.1,14.3,10.5c0.1,0.1,0.3,0.2,0.4,0.3c2.1,1.5,4.3,2.9,6.5,4.3
		c1.1,0.7,2,1.4,3.1,2c3.5,2.2,7,4.4,10.6,6.5c0.5,0.3,1,0.6,1.5,0.9c3.1,1.8,6.2,3.5,9.4,5.2c1.1,0.6,2.2,1.2,3.3,1.7
		c2.2,1.1,4.4,2.3,6.6,3.4c0.3,0.2,0.7,0.3,1,0.4c4.5,2.2,9,4.4,13.7,6.4c1,0.4,2,0.8,3,1.2c3.7,1.6,7.5,3.1,11.2,4.6
		c1.6,0.6,3.2,1.2,4.8,1.8c3.4,1.3,6.8,2.4,10.3,3.6c1.6,0.5,3.1,1,4.7,1.5c4.9,1.5,9.8,3.5,14.9,4.3
		c264,43.7,324.9-159.5,324.9-159.5c-54.9,79.1-161.3,116.9-274.8,87.4c-5-1.3-10-2.8-14.9-4.3c-1.5-0.5-3-0.9-4.5-1.5
		c-3.5-1.1-7-2.3-10.5-3.6c-1.6-0.6-3.2-1.2-4.7-1.8c-3.8-1.5-7.5-3-11.2-4.5c-1-0.4-2-0.8-3-1.3c-4.7-2-9.2-4.2-13.8-6.4
		c-2.3-1.1-4.6-2.3-6.9-3.5c-1.3-0.7-2.7-1.4-4-2.1c-2.9-1.6-5.9-3.2-8.7-4.9c-0.7-0.4-1.4-0.8-2.1-1.2c-3.6-2.1-7.1-4.2-10.6-6.5
		c-1.1-0.7-2.1-1.4-3.2-2.1c-2.3-1.5-4.6-3-6.9-4.5c-4.9-3.4-9.6-6.9-14.3-10.4c-1.1-0.8-2.2-1.7-3.2-2.5
		c-49.7-39.2-89.1-92.8-107.8-153.6c-19.6-63.1-15.4-133.8,18.6-191.3l-41.8,59c-51.1,73.6-48.3,172.1-8.5,249.9
		C269.1,373.4,276.7,386,285.1,398.1z M563.3,307c2.2,0.8,4.3,1.5,6.5,2.3c1,0.3,1.9,0.6,2.9,0.9c3.1,1,6.2,2.1,9.4,2.7
		c145.8,28.2,185.3-74.8,195.8-89.9c-34.6,49.9-92.8,61.8-164.2,44.5c-5.6-1.4-11.8-3.4-17.3-5.3c-7-2.5-13.8-5.3-20.5-8.5
		c-12.7-6.1-24.8-13.5-36-21.9C476,183.2,436.4,90.7,478,15.4l-22.6,31.1c-30.1,44.4-33.1,99.4-12.2,148.4
		C465.3,246.9,510.5,287.7,563.3,307z"/>
</g>
</svg>
