<?xml version="1.0" encoding="utf-8"?>
<!-- Generator: Adobe Illustrator 25.2.3, SVG Export Plug-In . SVG Version: 6.00 Build 0)  -->
<svg version="1.1" id="Layer_1" xmlns="http://www.w3.org/2000/svg" xmlns:xlink="http://www.w3.org/1999/xlink" x="0px" y="0px"
	 viewBox="0 0 800 800" style="enable-background:new 0 0 800 800;" xml:space="preserve">
<style type="text/css">
	.st0{fill:#FFFFFF;}
</style>
<path class="st0" d="M395.5,579.6c0,0,0-259,8.6-259c6.7,0,15.3,334.1,15.3,334.1C407.5,653.3,395.5,599.8,395.5,579.6L395.5,579.6z
	 M562.2,323.6c-23-100.4-73.3-186.7-142.7-253.4l-0.2-0.2c-8.4-12.9-16.2-27.7-22.4-43.3l-0.6-1.7c0,0.5,0,1.1,0,1.7
	c0,14.1-6.3,26.8-16.3,35.2l-0.1,0.1c-89.4,75.8-146.2,187.6-148.1,312.7v0.3c0,1.6,0,3.4,0,5.2c0,123.9,59.6,233.9,151.8,302.9
	l1,0.7l2.2,1.6c4,29.7,7.5,59.5,10.3,89.4h15c4.2-37.3,9.8-69.9,17.1-101.9l-1.1,6c9.9-6.9,18.6-14,26.6-21.7l-0.1,0.1
	c70-64.9,113.7-157.4,113.7-260.1c0-1.5,0-3,0-4.5v0.2c-0.1-24.5-2.3-48.5-6.5-71.8L562.2,323.6L562.2,323.6z"/>
</svg>
