<?xml version="1.0" encoding="utf-8"?>
<!-- Generator: Adobe Illustrator 25.2.3, SVG Export Plug-In . SVG Version: 6.00 Build 0)  -->
<svg version="1.1" id="Layer_1" xmlns="http://www.w3.org/2000/svg" xmlns:xlink="http://www.w3.org/1999/xlink" x="0px" y="0px"
	 viewBox="0 0 800 800" style="enable-background:new 0 0 800 800;" xml:space="preserve">
<style type="text/css">
	.st0{fill:#FFFFFF;}
</style>
<path class="st0" d="M470.5,387.7l-117.7,38.4l-102.3,45.2l-28.7,7.6c-7.3,6.9-15,13.9-23.2,21.1c-9,7.8-17.5,15-24,20.1
	c-7.2,5.7-17.9,16.3-23.4,23.2c-8.1,10.1-14.5,20.9-17.2,29.2c-4.9,14.9-2.5,30,7,44c12.1,17.8,36.2,36,64.3,48.3
	c14.3,6.3,38.4,14.4,56.6,19c30.2,7.6,88.5,15.9,120.6,17.1c6.5,0.2,15.2,0.2,15.6,0c0.7-0.5,5.7-9.9,11.5-21.8
	c19.8-40.3,34-78.1,41.7-110.4c4.7-19.5,8.3-45.6,10.6-76.5c0.6-8.7,0.9-37.5,0.4-47.3c-0.8-16-2.2-29-4.5-41.8
	c-0.3-1.9-0.5-3.5-0.3-3.7c0.3-0.3,1.5-0.6,15.9-4.9L470.5,387.7L470.5,387.7z M443.6,403.5c1.1,0,3.9,27.3,4.7,44.6
	c0.2,3.7,0.1,6-0.1,6c-0.7,0-15.1-8.4-25.3-14.9c-8.9-5.6-25.8-16.8-28.5-18.9c-0.9-0.7-0.8-0.7,6.5-3.2
	C413.3,412.8,442.7,403.4,443.6,403.5L443.6,403.5z M383.6,423.2c0.8,0,2.8,1.1,7.7,4.2c18.4,11.5,43.2,25.3,53.9,30
	c3.3,1.5,3.7,0.9-3.9,6.1c-16.2,11-36.4,21.9-61.2,32.8c-4.3,1.9-8,3.5-8.1,3.5c-0.1,0,0.3-2.2,1-4.9c6-22.2,9.4-44.6,9.5-62.6
	c0.1-8.9,0.1-8.9,0.9-9.1C383.5,423.2,383.5,423.1,383.6,423.2L383.6,423.2L383.6,423.2z M371.3,427.9c0.5,0.5,0.1,20.4-0.5,25.9
	c-1.5,13-4.1,25.1-8.2,38.7c-1,3.3-1.9,6.1-2,6.2c-0.4,0.4-12.5-11.5-16.6-16.1c-6.9-8-12.4-16-16.4-23.8c-2-4-5.2-11.9-4.9-12.1
	C324.1,445.6,371,427.5,371.3,427.9L371.3,427.9z M313.1,450.8c0.1,0,0.2,0.1,0.2,0.1c0.2,0.2,0.8,1.6,1.4,3.2
	c2.8,7.7,9.2,19.2,14.8,26.5c6,8,13.9,16.5,20.5,22.1c2.1,1.8,4.1,3.5,4.4,3.8c0.6,0.5,0.8,0.4-13.8,5.9
	c-16.8,6.4-35.1,12.8-56.2,19.6c-8,2.6-14.8,4.8-15.1,4.9c-0.8,0.3-0.5-0.2,1.8-3.9c10.4-16.3,26.3-48.2,35.1-70.8
	c1.5-3.9,3-7.8,3.2-8.7c0.4-1.3,0.8-1.7,2-2.3C312.3,450.9,312.8,450.7,313.1,450.8L313.1,450.8z M295.3,458.1
	c0.2,0.2-4.3,9.7-8.7,18.4c-8.6,16.8-18.1,33.3-30.7,53.5c-2.2,3.5-4.2,6.7-4.4,7c-0.4,0.6-0.6,0.4-2-2.3c-3-6-5.6-13.6-6.9-20.6
	c-1.3-7-1.1-19,0.5-26.5c1.1-5.6,1.1-5.4,3.7-6.8C258.1,475.1,294.9,457.8,295.3,458.1L295.3,458.1z M448.8,464.3v3.8
	c0,19.9-2.1,47-5.2,66.9c-0.5,3.5-1,6.3-1.1,6.4c0,0-2.5-0.7-5.6-1.6c-13.4-4.2-27.9-10.3-40.9-17.5c-8.6-4.8-21.2-12.4-20.8-12.8
	c0.1-0.1,3.8-2.1,8.2-4.4c17.5-9.1,34.1-18.8,48.7-28.5c5.5-3.6,13.6-9.5,15.4-11.1L448.8,464.3L448.8,464.3z M228.1,490.7
	c0.4,0,0.3,0.7-0.3,4c-0.4,2.3-0.9,6.6-1,9.6c-0.7,13,1.4,22.6,7.9,35.8c1.8,3.7,3.2,6.7,3.1,6.8c-0.7,0.5-59.5,17.8-78,22.8
	c-5.5,1.5-10.3,2.8-10.7,3c-0.6,0.2-0.7,0-0.5-1.5c2-13,12-30.2,25.9-44.6c9.2-9.6,16.7-15.2,29.3-22.4c9-5.1,23.1-12.9,24.1-13.3
	C228,490.7,228,490.7,228.1,490.7L228.1,490.7L228.1,490.7z M366.9,515.5c0.1-0.1,2.2,1.1,4.9,2.6c19,11,45.5,21.3,68.1,26.5
	l2.1,0.5l-2.8,1.6c-11.8,6.5-50.7,22.8-90.5,37.7c-5.8,2.2-11.5,4.3-12.6,4.8c-1.1,0.5-2,0.8-2,0.7c0-0.1,1.6-3.2,3.6-7
	c11.2-20.8,22.3-46.2,28-63.8C366.4,517.1,366.9,515.6,366.9,515.5L366.9,515.5L366.9,515.5z M352.8,520.2c0.1,0-0.6,1.9-1.5,4.1
	c-7.8,18.8-17.9,39.2-30.9,62.2c-3.3,5.8-6.1,10.6-6.2,10.6c-0.1,0-2.8-1.6-6-3.5c-18.9-11.5-35.6-25.8-46.5-39.6l-1.6-2l8.1-2.2
	c29-8,53.6-16.5,78.1-27C349.8,521.2,352.7,520,352.8,520.2L352.8,520.2L352.8,520.2z M440.7,550.9
	C440.7,550.9,440.7,550.9,440.7,550.9c0.1,2-4.4,20.3-8.2,33.6c-3.1,11.1-5.8,19.8-10.7,35.2c-2.1,6.8-4,12.4-4.1,12.3
	c-0.1,0-0.6-0.1-1.1-0.2c-26.4-4.8-50.1-11.4-72.3-20.4c-6.2-2.5-15.2-6.5-15.6-6.9c-0.1-0.2,5.2-2.7,11.9-5.6
	c40.5-17.7,82.5-37.8,96.8-46.4C439.1,551.4,440.4,550.8,440.7,550.9L440.7,550.9z M237.8,557.8c0.2,0.2-11.1,16.4-26.9,38.6
	c-5.5,7.7-12,16.8-14.4,20.2c-2.4,3.4-6,8.8-8.1,11.9l-3.8,5.8l-4-3.4c-4.7-3.9-12.9-12.2-16.6-16.9c-7.6-9.5-12.8-19.5-14.8-28.8
	c-0.9-4.2-1-6.4-0.1-6.7c1.3-0.4,25.1-6,47.4-11.1c12.4-2.9,26.7-6.2,31.8-7.5C233.5,558.7,237.8,557.8,237.8,557.8L237.8,557.8z
	 M249.2,562.2l2.9,3.2c12.8,14.3,25.9,24.9,41.8,34.1c2.8,1.6,5,3,4.8,3.2c-0.6,0.4-55,19.7-80.1,28.5c-14.2,4.9-25.8,8.9-25.9,8.9
	c0,0-0.9-0.5-1.8-1.2l-1.7-1.2l2.6-3.7c8.4-12.1,18.8-25.3,41.7-53L249.2,562.2L249.2,562.2z M320.2,612.9c0.1-0.1,4,1.3,8.8,3.1
	c11.6,4.3,20.7,7.1,33,10.2c15.1,3.8,36.9,7.6,49.9,8.7c2,0.2,3,0.4,2.7,0.6c-0.6,0.4-13.7,4.8-23.3,7.8
	c-15.3,4.8-62,18.6-100.1,29.6c-7.1,2-13.1,3.8-13.4,3.8c-0.9,0.2-3.8-0.6-3.8-1c0-0.2,2.1-2.9,4.7-6c12.8-15.3,25.5-32.4,36.1-48.6
	C317.7,616.7,320.1,613,320.2,612.9L320.2,612.9z M304.5,613.4c0.1,0.1-6.2,10.2-17.3,27.7c-4.7,7.4-10,15.8-11.8,18.7
	c-1.8,2.9-4.5,7.3-5.9,9.8l-2.6,4.5l-1.3-0.3c-3.2-0.9-25.7-8.8-31.6-11.2c-7.4-2.9-15.1-6.4-20.7-9.5c-7.1-3.8-16.1-9.5-15.3-9.7
	c0.2-0.1,12.4-3.4,27-7.4c39-10.6,60.6-16.7,74.7-21.2C302.2,613.9,304.4,613.3,304.5,613.4L304.5,613.4z M415.2,639.3
	c0.1,0,0.1,0,0.1,0c0.4,0.9-14.1,40.9-19.4,53.6c-1.2,2.9-1.6,3.5-2.2,3.5c-1.5-0.1-22.4-3-35.1-4.9c-22.2-3.4-59.3-9.8-68.7-12
	l-2.2-0.5l13.3-3c28.5-6.4,42.2-9.9,56-14.1c17.5-5.4,34.9-12.1,52.4-20.2C412.3,640.4,414.6,639.5,415.2,639.3L415.2,639.3
	L415.2,639.3z M349.2,113.3c-2-0.2-33.6,11.2-53.9,19.4c-27.5,11.2-48.9,21.9-62,31.1c-4.9,3.5-11.1,9.6-12,12
	c-0.3,0.9-0.5,1.9-0.5,3l11.9,11.3l28.3,9.1l67.5,12.1l77.2,13.3l0.8-6.6c-0.2-0.1-0.5-0.1-0.7-0.1l-10.2-1.6l-2.1-3.6
	c-10.5-18.5-22.1-41.4-28.8-56.9c-5.2-12-10.2-25.8-13-35.8C350.2,113.8,350,113.5,349.2,113.3L349.2,113.3L349.2,113.3z
	 M347.7,117.9c0.1,0,0.1,0,0.1,0c0,0.1,0.4,2.5,0.8,5.5c1.5,12.4,4.3,24.5,8.6,37.5c3.3,9.8,3.3,9.2-0.6,8.1
	c-9.1-2.5-49.8-9.5-79.2-13.6c-4.7-0.7-8.7-1.3-8.8-1.3c-0.4-0.4,21.2-11.7,30.8-16.1C311.8,132.2,345.3,118.4,347.7,117.9z
	 M261.9,157.7l3.5,1.2c18.9,6.4,66.2,15.5,92.4,17.6c3,0.3,5.4,0.5,5.5,0.6c0.1,0.1-2.4,1.4-5.6,3c-12.6,6.3-26.5,14-36.1,20.1
	c-2.8,1.8-5.4,3.2-5.8,3.2c-0.3,0-2.2-0.3-4.1-0.6l-3.6-0.6l-8.9-8.7c-15.7-15.2-28-26.9-32.7-31.4L261.9,157.7L261.9,157.7z
	 M258.5,160.5l12.5,15.6c6.9,8.6,13.8,17.1,15.3,18.9c1.5,1.8,2.7,3.4,2.7,3.5c-0.4,0.2-18.1-3.2-27.6-5.4
	c-9.7-2.2-13.7-3.3-19.7-5.2l-4.9-1.6l0-1.2c0-6,7.6-14.8,20.4-23.9L258.5,160.5L258.5,160.5z M365,181.8c0.4,0,0.8,0.8,1.9,3.2
	c3,6.6,12.5,24.7,14.8,28.2c0.8,1.1,2,1.2-10.6-0.8c-30.1-4.9-39.9-6.5-39.9-6.7c0-0.1,0.9-0.7,2-1.3c9.3-5.2,18.8-11.7,27.1-18.8
	c2-1.7,3.9-3.3,4.3-3.6C364.7,181.9,364.9,181.8,365,181.8L365,181.8z M221.8,174.6c0,0-1.9,3.1-0.1,7.7c1.1,2.8,4.6,6.3,8.3,9.9
	c0,0,39.6,38.6,44.4,44.2c21.9,25.3,31.4,50.2,32.3,84.6c0.6,22-3.7,41.4-14,64c-18.5,40.4-57.5,84.9-117.8,134.4l8.9-2.9
	c5.7-4.2,13.4-8.8,31.6-18.8c41.9-22.9,89-44,146.9-65.8c83.2-31.3,220.1-68,298.1-79.9l8.1-1.2l-1.2-2c-7.1-11.1-12-17.9-17.8-25.1
	c-17.1-21.1-37.8-38.4-63.1-52.6c-34.8-19.5-80-34.6-137.1-46c-10.8-2.2-34.5-6.2-53.7-9.2c-40.8-6.3-67-10.6-96.1-15.7
	c-10.4-1.8-26-4.4-36.3-6.6c-5.4-1.2-15.6-3.6-23.5-6.3C233.1,184.7,223.9,182.2,221.8,174.6L221.8,174.6z M244.8,196.9
	c0.1,0,1.6,0.4,3.3,1c3.3,1.1,7.8,2.4,12.9,3.9c3.6,1,7.6,2.1,11.7,3.1c5.4,1.4,9.8,2.6,9.8,2.6c0.6,0.7,9.6,29.3,12.6,40.4
	c1.2,4.2,2.1,7.7,2,7.8c-0.1,0.1-1.1-1.5-2.2-3.4c-10.4-18.3-26.9-36.9-45.9-51.8C246.7,198.6,244.8,197,244.8,196.9L244.8,196.9z
	 M288.6,209c0.4,0,2.4,0.3,4.8,0.8c15.1,3.3,42.2,8.6,59.6,11.5c2.9,0.5,5.3,1,5.3,1.2c0,0.1-1.1,0.9-2.4,1.5
	c-2.9,1.5-14.8,8.6-18.7,11.2c-9.9,6.6-18.8,13.7-25.2,20.1c-2.6,2.6-4.8,4.7-4.9,4.7s-0.5-1.5-1-3.4c-3.2-12.4-9.9-30.7-15.9-43.5
	c-1-2.1-1.8-3.9-1.8-4C288.5,209,288.5,209,288.6,209L288.6,209L288.6,209z M365.7,223.7c0.5,0.2,1.5,3.2,3.2,9.9
	c3.2,12.9,4.8,27.3,4.3,40.7c-0.1,3.7-0.4,7.2-0.5,7.7l-0.3,0.9l-4.6-1.5c-9.5-3-25-7.6-38.2-11.3c-7.5-2.1-13.7-4-13.7-4.1
	c0-0.6,11-11.6,15.7-15.7C340.5,242.2,364.8,223.3,365.7,223.7L365.7,223.7z M371.8,224.5c0.3-0.2,36.8,6.1,53.4,9.2
	c12.4,2.4,30.3,6.1,31.4,6.6c0.5,0.2-1.3,1.2-7.3,3.9c-23.5,10.6-41,20.1-58.3,31.7c-4.6,3-8.3,5.5-8.4,5.5s-0.1-2.5-0.1-5.6
	c0-16.9-3.4-33.9-9.6-48.3C372.2,225.9,371.7,224.6,371.8,224.5L371.8,224.5L371.8,224.5z M466.3,243.2c0.3,0.3-0.9,7.5-1.9,11.8
	c-3.2,13.2-11.8,32.9-22.4,51.4c-1.9,3.2-3.5,6-3.7,6c-0.2,0.1-2.6-1.2-5.4-2.8c-10.4-6-22.1-11.8-34.9-17.1
	c-3.6-1.5-6.6-2.8-6.8-2.9c-0.6-0.6,28-19.5,43.2-28.6C446.4,253.7,465.9,242.9,466.3,243.2L466.3,243.2z M473,244.3
	c0.8,0,17,4.4,25.4,6.9c20.9,6.2,45,15,60.6,22.1l6.5,2.9l-4.6,1.1c-38.2,8.8-71,18.9-102.6,31.7c-2.6,1.1-4.9,1.9-5.1,1.9
	c-0.2,0,0.7-2,1.8-4.5c9.5-20.1,15.6-41.3,17.2-59.2C472.5,245.7,472.8,244.3,473,244.3L473,244.3L473,244.3z M311.9,281.3
	c0.2-0.2,12.6,2.6,19.3,4.5c10.1,2.9,31.7,10.1,31.7,10.6c0,0.1-2.4,2.2-5.3,4.6c-11.6,9.7-22.8,19.9-36.3,32.9c-4,3.9-7.4,7-7.6,7
	c-0.2,0-0.2-0.6-0.1-1.2c2-14.9,1.6-34.1-1.2-53.7C312,283.5,311.8,281.4,311.9,281.3L311.9,281.3z M571.7,281.5
	c0.2,0.2-5.7,9.4-9.4,14.7c-5.4,7.7-13.2,17.8-30.9,40.1c-9.3,11.7-19.8,24.9-23.3,29.4c-3.6,4.5-6.5,8.1-6.6,8.1
	c-0.1,0-1.2-1.6-2.5-3.5c-10-14.9-21.9-28-36-39.8c-2.7-2.2-5.6-4.6-6.6-5.3c-1-0.8-1.8-1.4-1.8-1.5c0-0.2,15.1-6.7,26.6-11.4
	c20.1-8.2,47.5-18,68-24.3C560,284.7,571.5,281.4,571.7,281.5z M578.5,283.3c0.3-0.1,2.5,1,5.1,2.5c21.6,12.4,42.8,28.3,59.5,44.6
	c4.8,4.6,16.3,16.7,16.1,16.8c0,0-4,0.3-8.9,0.7c-37.5,2.8-85.4,10.8-131.5,21.9c-3.1,0.8-5.9,1.4-6,1.4s3.2-3.4,7.6-7.6
	c27.1-26,39.5-42.5,54-71.9C576.6,287.3,578.4,283.6,578.5,283.3C578.5,283.3,578.5,283.3,578.5,283.3L578.5,283.3L578.5,283.3z
	 M380.5,303.6c1.2,0.3,12.8,5.6,21.5,10c8,4,20,10.4,20.6,11c0.1,0.1-4.2,2.3-9.4,4.9c-16.7,8.4-31.1,16.2-46,25.4
	c-4.3,2.6-7.8,4.8-7.9,4.8c-0.4,0-0.2-0.3,2.1-4.7c8-14.6,14.4-32,18.1-49C379.8,304.5,380.2,303.6,380.5,303.6L380.5,303.6
	L380.5,303.6z M368.9,305.7c0.2,0.2-2.8,11.2-4.7,17.1c-3.6,11.3-9.8,25.5-15.7,36.1c-1.4,2.5-3.5,6.2-4.7,8.1l-2.2,3.6l-5-4.8
	c-5.8-5.6-10.5-9.1-16.5-12.2c-2.4-1.2-4.3-2.4-4.3-2.5c0-0.7,15.2-14.6,26.9-24.5C351,319.6,368.6,305.5,368.9,305.7L368.9,305.7z
	 M439.6,334.8l4.3,2.8c10,6.5,21.7,15.1,30.7,22.6c5,4.2,14.8,13,16.8,15.1l1.1,1.1l-7.2,2c-40.7,11.3-72.2,21.4-109,34.9
	c-4.1,1.5-7.6,2.8-7.8,2.8c-0.5,0-1,0.5,8.1-8c23.5-21.6,44.2-45.5,59.8-68.6L439.6,334.8L439.6,334.8z M421,339.5
	c0.2,0.2-12.1,17.4-19.3,27.1c-8.7,11.6-24.2,31-34.9,43.6c-4.5,5.3-8.3,9.6-8.5,9.7c-0.2,0.1-0.4-1.2-0.4-3.2
	c0-10.8-2.7-22.3-7.5-32c-2-4.1-2.4-5.1-2-5.5c1.7-1.5,27.6-16.3,44-25C403.6,348,420.8,339.3,421,339.5L421,339.5z M308.6,367
	c0.2,0,2.3,1,4.6,2.3c5.7,3.2,10.8,6.6,15.3,10.4c0.2,0.1-2.1,2-5.2,4.2c-8.4,6.1-21.3,15.8-28.7,21.7c-7.9,6.2-8.1,6.4-7.2,5.1
	c5.9-9,8.8-14.1,11.9-20.6c2.8-5.8,5.5-12.6,7.4-18.6C307.6,369,308.4,367,308.6,367L308.6,367z M338.5,390.5c0.4,0,1,0.7,3.4,4.3
	c5.1,7.6,9,17.7,10,25.9l0.2,1.8l-12.1,4.7c-21.8,8.5-41.9,16.8-55.5,23c-3.8,1.8-10.5,4.9-14.9,7.1c-4.4,2.2-7.9,3.9-7.9,3.8
	c0-0.1,2.8-2.1,6.1-4.6c26.6-19.3,49.6-40.5,66.9-61.7c1.9-2.3,3.5-4.2,3.8-4.4C338.4,390.5,338.5,390.5,338.5,390.5L338.5,390.5
	L338.5,390.5z M324.7,393.9c0.4,0.4-9.8,11.9-16.7,18.9c-17.1,17.5-34.2,31.2-55.2,44.6c-2.6,1.7-5.1,3.2-5.4,3.4
	c-0.6,0.4,0.2-0.5,9.5-10.6c5.8-6.4,10.3-11.6,15.4-18.2c3.3-4.3,4-5,8.9-8.5C294.3,414,324.4,393.6,324.7,393.9L324.7,393.9z"/>
</svg>
