<?xml version="1.0" encoding="utf-8"?>
<!-- Generator: Adobe Illustrator 25.2.3, SVG Export Plug-In . SVG Version: 6.00 Build 0)  -->
<svg version="1.1" id="Layer_1" xmlns="http://www.w3.org/2000/svg" xmlns:xlink="http://www.w3.org/1999/xlink" x="0px" y="0px"
	 viewBox="0 0 800 800" style="enable-background:new 0 0 800 800;" xml:space="preserve">
<style type="text/css">
	.st0{fill:#FFFFFF;}
</style>
<path class="st0" d="M804.3,780.4l-16.9-16.1c-8.4-11-17.3-20.8-27-29.7l-0.2-0.1c-10-9-20.3-17.6-31-25.8
	c-8.6-5.9-20.4-13-35.5-21.4c-12.4-5.6-22-15.3-27.3-27.5l-0.1-0.3l-1.6-0.8c7.1-0.7,13.5-2,19.7-3.8l-0.8,0.2l19-5.2
	c7.9-2.5,17-4.1,26.4-4.4h0.2c9.9-0.4,19.3-2,28.2-4.6l-0.8,0.2c4.3-1.1,8.7-2.3,13.3-3.6c4.6-1.4,8.5-2.6,11.7-3.6V628
	c-3.2-4.8-7.1-10.3-11.7-16.5c-4.4-5.9-9.3-11.1-14.8-15.6l-0.2-0.1c-14-12.4-28.5-24.3-43.4-35.9c-13.2-10.3-28.2-20.8-43.7-30.5
	l-2.3-1.3c-8.2-5.4-17.6-10.4-27.5-14.5l-1.1-0.4c-10-4-19.8-8.5-29.4-13.3c-3.2-1.6-7-3-10.9-4l-0.4-0.1c-3.9-0.8-7.2-2.8-9.7-5.6
	l0,0c-4.6-6.1-8.6-13-11.8-20.3l-0.3-0.7c-3.2-7.5-6.7-14.8-10.5-21.7c-8.1-15.6-15.9-31.5-23.4-47.6c-7.5-16.1-14.8-32.2-21.7-48.4
	c-4.8-10.8-9.3-21.5-13.3-32.2c-4.5-11.8-9.5-21.9-15.4-31.4l0.4,0.8c-14.4-24.5-28.8-45.5-44.4-65.4l0.9,1.3
	c-15.4-19.5-31.4-36.9-48.6-53l-0.3-0.2c-17-15.9-35.2-31.1-54.4-45.2l-1.6-1.2c-19.9-14.5-41.7-28.7-65.3-42.7
	c-9.5-5.6-20.5-10.2-32.2-13.1l-0.9-0.2l-37.1-9.3l-21-1.6c-7-0.5-14-0.8-21-0.8c-4.9-2.6-9.2-5.7-12.9-9.3
	c-3.7-3.5-7.6-6.8-11.8-9.8l-0.3-0.2c-20.2-11.8-43.6-22.5-68.1-31L69,6c-6.4-3.8-14.2-6-22.4-6C40.8,0,35.1,1.2,30,3.2l0.3-0.1
	C17.6,8.1,8,18.4,3.8,31.1l-0.1,0.3c-2.4,5.7-3.8,12.4-3.8,19.4c0,12.3,4.3,23.5,11.6,32.3L11.4,83c12.1,16.1,21.4,28.8,27.8,38
	c4.8,6.5,9.8,13.2,14.9,20.2c4.7,6.3,8.9,13.4,12.2,21l0.3,0.7c1.9,4,3.5,8.7,4.7,13.6l0.1,0.5c1.1,4.6,2.4,9.6,4,14.9
	c4.8,12.4,9.4,25,13.7,38c4.7,14.2,9.9,26.2,15.9,37.6l-0.6-1.3c3.2,5.9,6.5,11.7,9.7,17.3c3.2,5.6,6.7,11.2,10.5,16.5
	c2.2,3.3,4.9,6,8,8.1l0.1,0.1c3.3,2.4,5.5,6.2,5.6,10.4v0c-3.8,5.6-6.4,12.3-7.2,19.5l0,0.2c-1.2,8.4-2.8,15.9-5.1,23.2l0.3-1
	c-7.4,22.2-11.7,47.8-11.7,74.4c0,8.6,0.4,17.1,1.3,25.4l-0.1-1c2,31.9,11.6,61.3,27.1,86.7l-0.5-0.8c6.6,9.8,13.6,18.4,21.4,26.2
	c5.6,6.3,13.7,10.2,22.8,10.2c5.1,0,9.9-1.2,14.1-3.4l-0.2,0.1c11.7-4.2,20-14.9,20.6-27.6v-0.1c1.6-15.8,4-29.9,7.3-43.7l-0.4,2.2
	c0.8-2.1,1.3-4.5,1.3-7c0-0.5,0-1-0.1-1.5v0.1c-0.3-2.4,1.2-4.7,4.4-6.9v1.6c3.2,7.5,6.6,15.1,10.1,22.6s7.1,15,10.9,22.6
	c9.8,15,20.3,28,31.7,40.1l-0.1-0.1c11.5,12.4,24,23.5,37.6,33.4l0.7,0.5c7.1,5.4,13.3,11.2,18.9,17.6l0.1,0.1
	c5.3,6.2,11.6,11.3,18.7,15.1l0.3,0.2v-0.8h1.6c-1.3-2.9-3.4-5.2-6-6.8l-0.1,0c-2.6-1.5-4.9-2.9-7-4.5l0.2,0.1
	c-4.8-4.8-9.8-10.2-14.9-16.1c-5.1-5.9-9.8-11.6-14.1-16.9c-11.3-15.6-22.1-31.9-32.3-48.9c-10.2-17-19.9-34.3-29-51.8
	c-4.3-8.6-8.5-17.5-12.5-26.6c-4-9.1-7.9-18-11.7-26.6c-1.6-3.3-2.8-7.1-3.2-11.1v-0.2c-0.2-3.8-2.4-7.1-5.6-8.8l-0.1,0
	c-4,6.9-8.5,12.8-13.6,18.2l0,0c-5.3,5.6-9.6,12.1-12.7,19.3l-0.2,0.4c-4.7,11.4-8.1,24.6-9.6,38.5l-0.1,0.6
	c-1.6,14.2-3.2,28.9-4.8,43.9l-1.6,0.8l-0.8,0.8c-8.7-1.8-15.8-7.3-19.7-14.8l-0.1-0.2c-4-7.8-7.7-15.5-10.9-23
	c-8.3-21.2-13.4-45.8-14.1-71.5v-0.3c-0.3-4.1-0.4-8.8-0.4-13.6c0-22.2,3.5-43.6,10-63.7l-0.4,1.5c1.6-5.9,5.1-15.9,10.5-29.9
	c5.4-14,6.5-23.7,3.2-29c-1.7-5.5-4.8-10.1-8.8-13.7l0,0c-4.1-3.5-7.8-7.2-11.2-11.2l-0.1-0.1c-3.8-5.4-7.4-11.2-10.9-17.3
	c-3.5-6.1-6.6-12.2-9.3-18.1c-5.5-12.7-11.1-28.7-15.8-45.1l-0.7-3c-5.3-18.8-11.2-34.8-18.2-50.1l0.9,2.1c-3.7-8.4-8-15.7-13-22.3
	l0.2,0.3c-5.4-7.2-10.3-14.1-14.5-20.6c-5.4-7-10.8-13.7-16.1-20.2c-5.4-6.6-10.3-14-14.2-21.9l-0.3-0.7c-1.6-3.2-3-7-4-10.9
	l-0.1-0.4c-0.4-1.2-0.6-2.5-0.6-3.9c0-2.7,0.8-5.3,2.2-7.4l0,0.1c0.4-1.9,1.2-3.5,2.4-4.8c1.3-1.2,3-2,4.8-2.4h0.1
	c2.8-1.8,6.3-2.9,10-2.9c2.8,0,5.5,0.6,7.9,1.8l-0.1,0c7.3,2.1,13.2,4.1,19,6.5l-1.2-0.4c10.2,4.3,19.6,8.5,28.2,12.5
	c9.9,4.7,18.4,9.7,26.4,15.3l-0.6-0.4c4.3,2.7,8.6,5.6,12.9,8.9c4.3,3.2,8.9,6.5,13.7,9.7h11.3c8.6,0,17.7,0.4,27.4,1.2
	c9.8,0.8,18.8,2.6,27.4,5.5l-0.8-0.2c16,4.8,29.8,10.4,42.9,17.2l-1.4-0.6c13.2,6.7,25.7,13.8,37.5,21.4
	c19.6,12.2,36.6,24.8,52.6,38.5l-0.6-0.5c16.7,14.3,31.8,28.9,46,44.4l0.3,0.4c13.9,15.1,27.1,31.6,39.2,48.8l1,1.6
	c11.1,15.7,22.4,33.9,32.5,52.8l1.4,2.8c2.7,5.1,5.4,11.4,7.8,17.9l0.4,1.1c2.2,6.2,4.6,12.5,7.2,19c5.9,13.4,12.2,27,19,40.7
	c6.8,13.7,13.1,27,19,39.9l17.7,38.7c6.2,13.5,13.2,25.2,21.3,36l-0.4-0.5c6.8,7.2,15.8,12.3,25.9,14.1l0.3,0
	c12.3,3.1,22.6,6.5,32.6,10.6l-1.6-0.6c4.8,2.2,10.9,4.5,17.2,6.5l1.3,0.4c7.1,2.2,13.2,5,18.8,8.6l-0.3-0.2
	c10.9,6.1,20.1,12.1,28.9,18.6l-0.7-0.5c9.1,6.7,18.3,13,27.4,19c4.3,3.2,11.5,7.9,21.7,14.1s15.5,12,16.1,17.3
	c-3.8-0.1-8.3-0.2-12.8-0.2c-16.4,0-32.5,1.1-48.3,3.1l1.9-0.2c-17.9,2.4-34.1,6.8-49.3,13l1.3-0.5c-3.8,1.6-8.3,3.1-12.9,4.3
	L627,639c-4.7,0.7-8.4,4.5-8.9,9.2v0c2,2.5,3.7,5.5,4.8,8.7l0.1,0.2c1.1,3.4,2.5,6.3,4.2,9.1l-0.1-0.2c4,7,8.2,13.1,13,18.7
	l-0.1-0.2c4.7,5.8,10,10.8,15.9,15.1l0.2,0.2c5.4,4.3,11.1,8.7,16.9,13.3c5.4,4.2,11.4,8.3,17.7,12.1l0.8,0.4
	c9.5,5.8,20.5,11.3,31.9,16l1.5,0.5c12.5,5,23.2,10.8,33.1,17.7l-0.5-0.4c6.5,3.8,12.9,7.9,19.3,12.5c6.4,4.6,12.6,9,18.5,13.3
	c2.4,2.4,4.6,5.1,6.4,8l0.1,0.2c3,3.5,7.2,5.8,12,6.4h0.1v-1.6c-2.9-2.2-5.1-5.3-6.1-8.9l0-0.1c-0.8-3.4-2.1-6.4-3.7-9.1l0.1,0.1
	L804.3,780.4z M185.1,140.2c-4.3,0-8.3,0.1-12.1,0.4c-3.8,0.3-7.4,1-10.8,2.1l0.3-0.1v0.8h1.6c2.2,3.2,4.9,6.8,8.1,10.9
	c3.3,4,6.2,7.9,8.9,11.7l12.9,26.6l1.6-0.8c3.8-2.7,6.7-6.4,8.4-10.7l0.1-0.2c1.7-4.6,2.7-10,2.7-15.6c0-0.6,0-1.2,0-1.8v0.1
	c-1.5-1.5-2.7-3.2-3.6-5.1l0-0.1l-2.7-6.1c-1.8-2.8-4.2-5-7.1-6.4l-0.1,0C190.1,144.4,187.4,142.5,185.1,140.2L185.1,140.2z"/>
</svg>
