<?xml version="1.0" encoding="utf-8"?>
<!-- Generator: Adobe Illustrator 25.2.3, SVG Export Plug-In . SVG Version: 6.00 Build 0)  -->
<svg version="1.1" id="Layer_1" xmlns="http://www.w3.org/2000/svg" xmlns:xlink="http://www.w3.org/1999/xlink" x="0px" y="0px"
	 viewBox="0 0 800 800" style="enable-background:new 0 0 800 800;" xml:space="preserve">
<style type="text/css">
	.st0{fill:#FFFFFF;}
</style>
<path class="st0" d="M0,400v400h800V0H0V400z M644.7,368.1c20.3,5.1,35.8,14.1,50,28.8c7.4,7.9,18.3,22.2,19.2,25.7
	c0.3,1-34.5,24.3-55.6,37.4c-0.8,0.5-3.8-2.8-7.2-7.9c-10.3-15-21.1-21.5-37.6-22.6c-24.3-1.7-39.9,11-39.7,32.2
	c-0.2,5.2,1,10.4,3.4,15c5.3,11,15.3,17.7,46.3,31.1c57.3,24.7,81.8,40.9,97,64c17,25.8,20.8,66.9,9.3,97.5
	c-12.7,33.3-44.2,55.9-88.5,63.3c-13.7,2.4-46.2,2.1-60.9-0.6c-32.1-5.7-62.6-21.6-81.4-42.4c-7.4-8.1-21.7-29.3-20.8-30.8
	c0.4-0.5,3.7-2.6,7.3-4.7c3.6-2,17-9.8,29.7-17.2l23-13.3l4.8,7.1c6.7,10.3,21.4,24.4,30.3,29.1c25.5,13.5,60.6,11.6,77.8-3.9
	c7-5.9,10.9-14.8,10.4-24c0-9.3-1.2-13.3-6-20.3c-6.2-8.9-18.9-16.3-55-32c-41.3-17.8-59-28.8-75.3-46.3c-10.2-11.6-17.7-25.2-22-40
	c-3-11.3-3.8-39.6-1.4-51c8.5-39.9,38.6-67.7,82-75.9C598.1,363.7,630.9,364.7,644.7,368.1L644.7,368.1z M456.9,401.5l0.3,32.8H353
	v295.9h-73.7V434.3H175.3v-32.1c0-17.8,0.4-32.7,0.9-33c0.4-0.5,63.8-0.8,140.6-0.7l139.8,0.4L456.9,401.5z"/>
</svg>
